<svg xmlns="http://www.w3.org/2000/svg" xmlns:xlink="http://www.w3.org/1999/xlink" width="191.981" height="40.264" viewBox="0 0 191.981 40.264">
  <defs>
    <clipPath id="clip-path">
      <rect id="Rectangle_11" data-name="Rectangle 11" width="191.981" height="40.264" fill="none"/>
    </clipPath>
  </defs>
  <g id="Group_20" data-name="Group 20" transform="translate(0)">
    <path id="Path_19" data-name="Path 19" d="M26.641,8.92,5.226,28.333V8.92H0V46.552H5.226V35.266l8.916-8.083L27.065,46.552h6.256l-15.281-22.9L34.288,8.92Z" transform="translate(0 -6.288)" fill="#161615"/>
    <path id="Path_20" data-name="Path 20" d="M231.224,8.92v10l32.42,8.158v1.315l-32.42,8.158v10h35.033V41.327h-32.42v-.488l32.42-8.158V22.79l-32.42-8.158v-.488h32.42V8.92Z" transform="translate(-162.997 -6.288)" fill="#161615"/>
    <path id="Path_21" data-name="Path 21" d="M140.476,8.85l8.959,25.124h-5.524l-8.028-22.512h-1.349l-7.792,22.557h-5.524L129.912,8.85Z" transform="translate(-85.451 -6.238)" fill="#161615" fill-rule="evenodd"/>
    <path id="Path_22" data-name="Path 22" d="M401.907,9.362l-2.667,3.829,2.927,5.5H400.7l-2.216-4.226h-.137l-1.19,1.723v2.5h-1.34V9.362h1.34v4.568h.137l3.051-4.568Z" transform="translate(-279.026 -6.599)" fill="#161615"/>
    <path id="Path_23" data-name="Path 23" d="M423.39,10.62l-1.012,4.089h2.161l-1.012-4.089Zm3.529,8.068h-1.4l-.67-2.721h-2.791l-.684,2.721h-1.45l2.5-9.327h2.038Z" transform="translate(-296.021 -6.6)" fill="#161615"/>
    <path id="Path_24" data-name="Path 24" d="M450.854,18.688h-1.3V9.362h1.929l2.709,7.262h.137V9.362h1.3v9.327H453.7l-2.709-7.262h-.137Z" transform="translate(-316.905 -6.599)" fill="#161615"/>
    <g id="Group_19" data-name="Group 19" transform="translate(0)">
      <g id="Group_18" data-name="Group 18" clip-path="url(#clip-path)">
        <path id="Path_25" data-name="Path 25" d="M480.612,18.5a3.084,3.084,0,0,1-2.291-.862,3.446,3.446,0,0,1-.855-2.53V12.29a3.446,3.446,0,0,1,.855-2.53,3.084,3.084,0,0,1,2.291-.862h.068a3.074,3.074,0,0,1,2.285.855,3.458,3.458,0,0,1,.848,2.537h-1.341a2.531,2.531,0,0,0-.431-1.675,1.731,1.731,0,0,0-1.361-.485h-.068a1.742,1.742,0,0,0-1.368.479,2.558,2.558,0,0,0-.424,1.682v2.817a2.562,2.562,0,0,0,.424,1.675,1.728,1.728,0,0,0,1.368.485h.068a1.731,1.731,0,0,0,1.361-.485,2.531,2.531,0,0,0,.431-1.675h1.341a3.463,3.463,0,0,1-.848,2.53,3.061,3.061,0,0,1-2.285.862Z" transform="translate(-336.581 -6.272)" fill="#161615"/>
        <path id="Path_26" data-name="Path 26" d="M511.954,9.362v1.244h-4.309v2.762h3.2v1.258h-3.2v2.817h4.309v1.244H506.3V9.362Z" transform="translate(-356.909 -6.599)" fill="#161615"/>
        <path id="Path_27" data-name="Path 27" d="M533.144,9.362v8.082h3.817v1.244H531.8V9.362Z" transform="translate(-374.885 -6.599)" fill="#161615"/>
        <path id="Path_28" data-name="Path 28" d="M555.87,1.846h-1.231V1.682L556.294,0h1.518V.15Zm.027,2.174-1.012,4.089h2.161l-1.012-4.089Zm3.529,8.068h-1.4l-.67-2.721H554.57l-.684,2.721h-1.45l2.5-9.327h2.038Z" transform="translate(-389.43)" fill="#161615"/>
        <path id="Path_29" data-name="Path 29" d="M584.689,1.131,585.8.324h1.094v.15L585.3,2.088h-1.231l-1.6-1.614V.324h1.094Zm2.134,4.745A1.785,1.785,0,0,0,586.46,4.6a1.787,1.787,0,0,0-1.279-.363H583.4V7.558h1.779a1.784,1.784,0,0,0,1.286-.363,1.809,1.809,0,0,0,.356-1.279Zm1.327.041a3.108,3.108,0,0,1-.541,1.935,2.475,2.475,0,0,1-1.594.9v.109l2.12,3.46h-1.5l-2.12-3.5H583.4v3.5h-1.341V2.991h3.119q2.969,0,2.969,2.885Z" transform="translate(-410.314 -0.228)" fill="#161615"/>
        <path id="Path_30" data-name="Path 30" d="M396.638,58.132l-1.012,4.089h2.161l-1.012-4.089Zm3.53,8.068h-1.4l-.67-2.721h-2.791l-.684,2.721h-1.45l2.5-9.327h2.038Z" transform="translate(-277.163 -40.092)" fill="#161615"/>
        <path id="Path_31" data-name="Path 31" d="M427.564,59.759a1.364,1.364,0,0,0-1.642-1.641h-1.778v3.323h1.778a1.783,1.783,0,0,0,1.286-.362,1.808,1.808,0,0,0,.356-1.279Zm1.327.041a3.107,3.107,0,0,1-.54,1.935,2.475,2.475,0,0,1-1.594.9v.109l2.121,3.46h-1.5l-2.121-3.5h-1.108v3.5H422.8V56.874h3.119q2.969,0,2.969,2.885Z" transform="translate(-298.047 -40.092)" fill="#161615"/>
        <path id="Path_32" data-name="Path 32" d="M451.821,66.01a3.084,3.084,0,0,1-2.292-.861,3.445,3.445,0,0,1-.855-2.53V59.8a3.445,3.445,0,0,1,.855-2.53,3.084,3.084,0,0,1,2.292-.862h.068a3.074,3.074,0,0,1,2.285.855,3.457,3.457,0,0,1,.848,2.537h-1.341a2.533,2.533,0,0,0-.431-1.675,1.732,1.732,0,0,0-1.361-.485h-.068a1.742,1.742,0,0,0-1.368.479,2.558,2.558,0,0,0-.424,1.682v2.817a2.562,2.562,0,0,0,.424,1.675,1.729,1.729,0,0,0,1.368.485h.068a1.732,1.732,0,0,0,1.361-.485,2.533,2.533,0,0,0,.431-1.675h1.341a3.462,3.462,0,0,1-.848,2.53,3.061,3.061,0,0,1-2.285.861Z" transform="translate(-316.284 -39.765)" fill="#161615"/>
        <path id="Path_33" data-name="Path 33" d="M482.245,60.962V56.874h1.341V66.2h-1.341V62.207h-3.393V66.2h-1.341V56.874h1.341v4.089Z" transform="translate(-336.613 -40.092)" fill="#161615"/>
        <rect id="Rectangle_10" data-name="Rectangle 10" width="1.341" height="9.327" transform="translate(149.49 16.782)" fill="#161615"/>
        <path id="Path_34" data-name="Path 34" d="M516.5,56.874H523v1.244H520.43V66.2h-1.354V58.118H516.5Z" transform="translate(-364.1 -40.092)" fill="#161615"/>
        <path id="Path_35" data-name="Path 35" d="M549.508,56.874v1.244H545.2V60.88h3.2v1.258h-3.2v2.817h4.309V66.2h-5.65V56.874Z" transform="translate(-383.382 -40.092)" fill="#161615"/>
        <path id="Path_36" data-name="Path 36" d="M575.445,56.874,572.778,60.7l2.928,5.5h-1.464l-2.216-4.226h-.137L570.7,63.7v2.5h-1.341V56.874H570.7v4.567h.137l3.051-4.567Z" transform="translate(-401.358 -40.092)" fill="#161615"/>
        <path id="Path_37" data-name="Path 37" d="M592.911,56.874h6.5v1.244h-2.572V66.2h-1.354V58.118h-2.572Z" transform="translate(-417.961 -40.092)" fill="#161615"/>
        <path id="Path_38" data-name="Path 38" d="M618.441,58.132l-1.012,4.089h2.161l-1.012-4.089Zm3.53,8.068h-1.4l-.67-2.721h-2.791L616.43,66.2h-1.45l2.5-9.327h2.039Z" transform="translate(-433.519 -40.092)" fill="#161615"/>
        <path id="Path_39" data-name="Path 39" d="M397.133,113.712H395.82v-9.327h1.628l1.778,4.171h.137l1.778-4.171h1.642v9.327h-1.327V106.7h-.137l-1.669,3.788h-.711L397.27,106.7h-.137Z" transform="translate(-279.026 -73.585)" fill="#161615"/>
        <path id="Path_40" data-name="Path 40" d="M430.741,96.155l1.108-.807h1.094v.15l-1.587,1.614h-1.231l-1.6-1.614v-.15h1.094Zm2.859,1.86v1.244h-4.309v2.762h3.2v1.258h-3.2V106.1H433.6v1.245h-5.65V98.015Z" transform="translate(-301.675 -67.214)" fill="#161615"/>
        <path id="Path_41" data-name="Path 41" d="M454.346,113.522a3.478,3.478,0,0,1-2.353-.745,2.832,2.832,0,0,1-.862-2.263h1.341a1.807,1.807,0,0,0,.445,1.395,2.117,2.117,0,0,0,1.43.4h.082a2.263,2.263,0,0,0,1.354-.328,1.231,1.231,0,0,0,.438-1.053,1.158,1.158,0,0,0-.267-.786,1.837,1.837,0,0,0-.65-.479,10.7,10.7,0,0,0-1.012-.376l-.233-.075-.192-.061a5.353,5.353,0,0,1-1.909-1.046,2.219,2.219,0,0,1-.65-1.7,2.263,2.263,0,0,1,.807-1.826,3.133,3.133,0,0,1,2.052-.65h.082a3.264,3.264,0,0,1,2.257.745,2.88,2.88,0,0,1,.834,2.263H456a1.88,1.88,0,0,0-.417-1.4,1.911,1.911,0,0,0-1.334-.39h-.082q-1.5,0-1.5,1.258a1.2,1.2,0,0,0,.253.786,1.678,1.678,0,0,0,.622.472,10.317,10.317,0,0,0,1.012.369,10.88,10.88,0,0,1,1.58.622,2.8,2.8,0,0,1,1.033.875,2.348,2.348,0,0,1,.4,1.4,2.308,2.308,0,0,1-.848,1.935,3.612,3.612,0,0,1-2.285.663Z" transform="translate(-318.016 -73.258)" fill="#161615"/>
        <path id="Path_42" data-name="Path 42" d="M475.565,104.386h6.5v1.244h-2.572v8.082h-1.354V105.63h-2.572Z" transform="translate(-335.24 -73.585)" fill="#161615"/>
        <path id="Path_43" data-name="Path 43" d="M501.1,105.644l-1.012,4.089h2.161l-1.012-4.089Zm3.53,8.068h-1.4l-.67-2.721h-2.791l-.684,2.721h-1.45l2.5-9.327h2.039Z" transform="translate(-350.798 -73.585)" fill="#161615"/>
        <path id="Path_44" data-name="Path 44" d="M543.146,113.712h-5.965v-1.135l4.337-6.81v-.137h-4.1v-1.244h5.677v1.162l-4.337,6.783v.137h4.391Z" transform="translate(-378.676 -73.585)" fill="#161615"/>
        <path id="Path_45" data-name="Path 45" d="M565.459,104.386v8.082h3.817v1.245h-5.158v-9.327Z" transform="translate(-397.665 -73.585)" fill="#161615"/>
        <path id="Path_46" data-name="Path 46" d="M586.446,96.87h-1.231v-.164l1.655-1.682h1.518v.15Zm.752,10.242h-1.341V97.786H587.2Z" transform="translate(-412.537 -66.985)" fill="#161615"/>
        <path id="Path_47" data-name="Path 47" d="M601.767,113.712h-1.3v-9.327H602.4l2.709,7.262h.137v-7.262h1.3v9.327h-1.929L601.9,106.45h-.137Z" transform="translate(-423.289 -73.585)" fill="#161615"/>
        <path id="Path_48" data-name="Path 48" d="M630.4,105.644l-1.012,4.089h2.161l-1.012-4.089Zm3.529,8.068h-1.4l-.67-2.721h-2.791l-.684,2.721h-1.45l2.5-9.327h2.038Z" transform="translate(-441.951 -73.585)" fill="#161615"/>
      </g>
    </g>
  </g>
</svg>
